HIERARCHY
ROOT hip
{
  OFFSET 0 90.174 2.4664
  CHANNELS 6 Xposition Yposition Zposition Zrotation Xrotation Yrotation
  JOINT abdomen
  {
    OFFSET 0 -1.186 -1.5018
    CHANNELS 6 Xposition Yposition Zposition Zrotation Xrotation Yrotation
    JOINT abdomen2
    {
      OFFSET 0 9.964 0.2134
      CHANNELS 6 Xposition Yposition Zposition Zrotation Xrotation Yrotation
      JOINT chest
      {
        OFFSET 0 13.134 -3.2573
        CHANNELS 6 Xposition Yposition Zposition Zrotation Xrotation Yrotation
        JOINT neck
        {
          OFFSET 0 20.686 -1.6905
          CHANNELS 6 Xposition Yposition Zposition Zrotation Xrotation Yrotation
          JOINT head
          {
            OFFSET 0 7.238 -0.1237
            CHANNELS 6 Xposition Yposition Zposition Zrotation Xrotation Yrotation
            End Site
            {
              OFFSET 0 0 0
            }
          }
        }
        JOINT lCollar
        {
          OFFSET 1.7069 20.075 5.0056
          CHANNELS 6 Xposition Yposition Zposition Zrotation Xrotation Yrotation
          JOINT lShldr
          {
            OFFSET 13.6458 -0.047 -4.849
            CHANNELS 6 Xposition Yposition Zposition Zrotation Xrotation Yrotation
            JOINT lForeArm
            {
              OFFSET 28.3255 -0.9759 2.2888
              CHANNELS 6 Xposition Yposition Zposition Zrotation Xrotation Yrotation
              JOINT lHand
              {
                OFFSET 22.1583 -0.53 10.8316
                CHANNELS 6 Xposition Yposition Zposition Zrotation Xrotation Yrotation
                JOINT lThumb1
                {
                  OFFSET 0.786 0.112 2.5817
                  CHANNELS 6 Xposition Yposition Zposition Zrotation Xrotation Yrotation
                  JOINT lThumb2
                  {
                    OFFSET 0.3601 -0.878 4.2331
                    CHANNELS 6 Xposition Yposition Zposition Zrotation Xrotation Yrotation
                    JOINT lThumb2_End
                    {
                      OFFSET 1.8127 -1.216 2.2227
                      CHANNELS 6 Xposition Yposition Zposition Zrotation Xrotation Yrotation
                      End Site
                      {
                        OFFSET 0.0181 -0.0122 0.0222
                      }
                    }
                  }
                }
                JOINT lCarpal1
                {
                  OFFSET 0.9571 1.114 1.7695
                  CHANNELS 6 Xposition Yposition Zposition Zrotation Xrotation Yrotation
                  JOINT lIndex1
                  {
                    OFFSET 4.1246 0.487 4.1451
                    CHANNELS 6 Xposition Yposition Zposition Zrotation Xrotation Yrotation
                    JOINT lIndex2
                    {
                      OFFSET 3.4052 -1.454 2.7682
                      CHANNELS 6 Xposition Yposition Zposition Zrotation Xrotation Yrotation
                      JOINT lIndex2_End
                      {
                        OFFSET 1.4531 -1.795 1.2713
                        CHANNELS 6 Xposition Yposition Zposition Zrotation Xrotation Yrotation
                        End Site
                        {
                          OFFSET 0.0145 -0.0179 0.0127
                        }
                      }
                    }
                  }
                  JOINT lMid1
                  {
                    OFFSET 5.6954 0.21 2.1184
                    CHANNELS 6 Xposition Yposition Zposition Zrotation Xrotation Yrotation
                    JOINT lMid2
                    {
                      OFFSET 3.9766 -1.54 2.3863
                      CHANNELS 6 Xposition Yposition Zposition Zrotation Xrotation Yrotation
                      JOINT lMid2_End
                      {
                        OFFSET 1.4042 -1.926 1.125
                        CHANNELS 6 Xposition Yposition Zposition Zrotation Xrotation Yrotation
                        End Site
                        {
                          OFFSET 0.014 -0.0193 0.0113
                        }
                      }
                    }
                  }
                }
                JOINT lCarpal2
                {
                  OFFSET 2.0956 0.66 -0.3894
                  CHANNELS 6 Xposition Yposition Zposition Zrotation Xrotation Yrotation
                  JOINT lRing1
                  {
                    OFFSET 5.0395 -0.09 2.4971
                    CHANNELS 6 Xposition Yposition Zposition Zrotation Xrotation Yrotation
                    JOINT lRing2
                    {
                      OFFSET 3.7921 -1.552 1.4806
                      CHANNELS 6 Xposition Yposition Zposition Zrotation Xrotation Yrotation
                      JOINT lRing2_End
                      {
                        OFFSET 1.4655 -1.808 0.9609
                        CHANNELS 6 Xposition Yposition Zposition Zrotation Xrotation Yrotation
                        End Site
                        {
                          OFFSET 0.0147 -0.0181 0.0096
                        }
                      }
                    }
                  }
                  JOINT lPinky1
                  {
                    OFFSET 4.9141 -1.269 0.3591
                    CHANNELS 6 Xposition Yposition Zposition Zrotation Xrotation Yrotation
                    JOINT lPinky2
                    {
                      OFFSET 3.1477 -1.685 0.8462
                      CHANNELS 6 Xposition Yposition Zposition Zrotation Xrotation Yrotation
                      JOINT lPinky2_End
                      {
                        OFFSET 0.8055 -1.585 0.7955
                        CHANNELS 6 Xposition Yposition Zposition Zrotation Xrotation Yrotation
                        End Site
                        {
                          OFFSET 0.0081 -0.0158 0.008
                        }
                      }
                    }
                  }
                }
              }
            }
          }
        }
        JOINT rCollar
        {
          OFFSET -1.7069 20.075 5.0056
          CHANNELS 6 Xposition Yposition Zposition Zrotation Xrotation Yrotation
          JOINT rShldr
          {
            OFFSET -13.6458 -0.047 -4.849
            CHANNELS 6 Xposition Yposition Zposition Zrotation Xrotation Yrotation
            JOINT rForeArm
            {
              OFFSET -28.3255 -0.9759 2.2888
              CHANNELS 6 Xposition Yposition Zposition Zrotation Xrotation Yrotation
              JOINT rHand
              {
                OFFSET -22.1583 -0.53 10.8316
                CHANNELS 6 Xposition Yposition Zposition Zrotation Xrotation Yrotation
                JOINT rThumb1
                {
                  OFFSET -0.786 0.112 2.5817
                  CHANNELS 6 Xposition Yposition Zposition Zrotation Xrotation Yrotation
                  JOINT rThumb2
                  {
                    OFFSET -0.3601 -0.878 4.2331
                    CHANNELS 6 Xposition Yposition Zposition Zrotation Xrotation Yrotation
                    JOINT rThumb2_End
                    {
                      OFFSET -1.8127 -1.216 2.2227
                      CHANNELS 6 Xposition Yposition Zposition Zrotation Xrotation Yrotation
                      End Site
                      {
                        OFFSET -0.0181 -0.0122 0.0222
                      }
                    }
                  }
                }
                JOINT rCarpal1
                {
                  OFFSET -0.9571 1.114 1.7695
                  CHANNELS 6 Xposition Yposition Zposition Zrotation Xrotation Yrotation
                  JOINT rIndex1
                  {
                    OFFSET -4.1246 0.487 4.1451
                    CHANNELS 6 Xposition Yposition Zposition Zrotation Xrotation Yrotation
                    JOINT rIndex2
                    {
                      OFFSET -3.4052 -1.454 2.7682
                      CHANNELS 6 Xposition Yposition Zposition Zrotation Xrotation Yrotation
                      JOINT rIndex2_End
                      {
                        OFFSET -1.4531 -1.795 1.2713
                        CHANNELS 6 Xposition Yposition Zposition Zrotation Xrotation Yrotation
                        End Site
                        {
                          OFFSET -0.0145 -0.018 0.0127
                        }
                      }
                    }
                  }
                  JOINT rMid1
                  {
                    OFFSET -5.6954 0.21 2.1184
                    CHANNELS 6 Xposition Yposition Zposition Zrotation Xrotation Yrotation
                    JOINT rMid2
                    {
                      OFFSET -3.9766 -1.54 2.3863
                      CHANNELS 6 Xposition Yposition Zposition Zrotation Xrotation Yrotation
                      JOINT rMid2_End
                      {
                        OFFSET -1.4042 -1.926 1.125
                        CHANNELS 6 Xposition Yposition Zposition Zrotation Xrotation Yrotation
                        End Site
                        {
                          OFFSET -0.014 -0.0193 0.0113
                        }
                      }
                    }
                  }
                }
                JOINT rCarpal2
                {
                  OFFSET -2.0956 0.66 -0.3894
                  CHANNELS 6 Xposition Yposition Zposition Zrotation Xrotation Yrotation
                  JOINT rRing1
                  {
                    OFFSET -5.0395 -0.09 2.4971
                    CHANNELS 6 Xposition Yposition Zposition Zrotation Xrotation Yrotation
                    JOINT rRing2
                    {
                      OFFSET -3.7921 -1.552 1.4806
                      CHANNELS 6 Xposition Yposition Zposition Zrotation Xrotation Yrotation
                      JOINT rRing2_End
                      {
                        OFFSET -1.4655 -1.808 0.9609
                        CHANNELS 6 Xposition Yposition Zposition Zrotation Xrotation Yrotation
                        End Site
                        {
                          OFFSET -0.0147 -0.0181 0.0096
                        }
                      }
                    }
                  }
                  JOINT rPinky1
                  {
                    OFFSET -4.9141 -1.269 0.3592
                    CHANNELS 6 Xposition Yposition Zposition Zrotation Xrotation Yrotation
                    JOINT rPinky2
                    {
                      OFFSET -3.1477 -1.685 0.8462
                      CHANNELS 6 Xposition Yposition Zposition Zrotation Xrotation Yrotation
                      JOINT rPinky2_End
                      {
                        OFFSET -0.8055 -1.585 0.7955
                        CHANNELS 6 Xposition Yposition Zposition Zrotation Xrotation Yrotation
                        End Site
                        {
                          OFFSET -0.0081 -0.0158 0.008
                        }
                      }
                    }
                  }
                }
              }
            }
          }
        }
      }
    }
  }
  JOINT lThigh
  {
    OFFSET 8.367 -8.2066 0.5982
    CHANNELS 6 Xposition Yposition Zposition Zrotation Xrotation Yrotation
    JOINT lShin
    {
      OFFSET 2.1923 -43.463 -0.4932
      CHANNELS 6 Xposition Yposition Zposition Zrotation Xrotation Yrotation
      JOINT lFoot
      {
        OFFSET 0.7333 -45.8593 -2.6451
        CHANNELS 6 Xposition Yposition Zposition Zrotation Xrotation Yrotation
        End Site
        {
          OFFSET 2.6618 -4.2699 12.3931
        }
      }
    }
  }
  JOINT rThigh
  {
    OFFSET -8.367 -8.2066 0.5982
    CHANNELS 6 Xposition Yposition Zposition Zrotation Xrotation Yrotation
    JOINT rShin
    {
      OFFSET -2.1923 -43.463 -0.4931
      CHANNELS 6 Xposition Yposition Zposition Zrotation Xrotation Yrotation
      JOINT rFoot
      {
        OFFSET -0.7333 -45.8593 -2.6451
        CHANNELS 6 Xposition Yposition Zposition Zrotation Xrotation Yrotation
        End Site
        {
          OFFSET -2.6618 -4.2699 12.3931
        }
      }
    }
  }
}
MOTION
Frames:	4
Frame Time:	0.0333333
0 90.174 2.4664 0 0 -0 0 -1.186 -1.5018 0 0 -0 0 9.964 0.2134 0 0 -0 0 13.134 -3.2573 0 0 -0 0 20.686 -1.6905 0 0 -0 0 7.238 -0.1237 0 0 -0 1.7069 20.075 5.0056 0 0 -0 13.6458 -0.047 -4.849 1.66051 0.0835086 5.75766 28.3255 -0.9759 2.2888 -0.0175111 0.895433 15.7816 22.1583 -0.53 10.8316 7.95139e-016 -1.98785e-016 -0 0.786 0.112 2.5817 5.46658e-016 -3.97569e-016 -0 0.3601 -0.878 4.2331 5.96354e-016 0 -0 1.8127 -1.216 2.2227 3.97569e-016 1.98785e-016 9.54166e-015 0.9571 1.114 1.7695 1.49089e-016 -3.97569e-016 -0 4.1246 0.487 4.1451 6.4605e-016 0 3.18055e-015 3.4052 -1.454 2.7682 5.96354e-016 0 3.18055e-015 1.4531 -1.795 1.2713 8.94531e-016 -1.98785e-016 6.36111e-015 5.6954 0.21 2.1184 6.4605e-016 0 3.18055e-015 3.9766 -1.54 2.3863 5.96354e-016 0 3.18055e-015 1.4042 -1.926 1.125 8.94531e-016 -1.98785e-016 6.36111e-015 2.0956 0.66 -0.3894 1.49089e-016 -3.97569e-016 -0 5.0395 -0.09 2.4971 6.4605e-016 0 3.18055e-015 3.7921 -1.552 1.4806 5.96354e-016 0 3.18055e-015 1.4655 -1.808 0.9609 8.94531e-016 -1.98785e-016 6.36111e-015 4.9141 -1.269 0.3591 6.4605e-016 0 3.18055e-015 3.1477 -1.685 0.8462 5.96354e-016 0 3.18055e-015 0.8055 -1.585 0.7955 8.94531e-016 -1.98785e-016 6.36111e-015 -1.7069 20.075 5.0056 0 0 -0 -13.6458 -0.047 -4.849 -1.4496 0.0636048 -5.0245 -28.3255 -0.9759 2.2888 -1.74811 1.20616 -16.8394 -22.1583 -0.53 10.8316 -1.19271e-015 1.98785e-016 -3.18055e-015 -0.786 0.112 2.5817 -3.97569e-016 1.98785e-016 -3.18055e-015 -0.3601 -0.878 4.2331 -2.98177e-016 1.98785e-016 -3.18055e-015 -1.8127 -1.216 2.2227 -2.98177e-016 3.97569e-016 -0 -0.9571 1.114 1.7695 4.96962e-016 0 -6.36111e-015 -4.1246 0.487 4.1451 -9.93923e-017 3.97569e-016 -0 -3.4052 -1.454 2.7682 -8.94531e-016 5.96354e-016 -0 -1.4531 -1.795 1.2713 -3.97569e-016 3.97569e-016 -0 -5.6954 0.21 2.1184 -9.93923e-017 3.97569e-016 -0 -3.9766 -1.54 2.3863 -8.94531e-016 5.96354e-016 -0 -1.4042 -1.926 1.125 -3.97569e-016 3.97569e-016 -0 -2.0956 0.66 -0.3894 4.96962e-016 0 -6.36111e-015 -5.0395 -0.09 2.4971 -9.93923e-017 3.97569e-016 -0 -3.7921 -1.552 1.4806 -8.94531e-016 5.96354e-016 -0 -1.4655 -1.808 0.9609 -3.97569e-016 3.97569e-016 -0 -4.9141 -1.269 0.3592 -9.93923e-017 3.97569e-016 -0 -3.1477 -1.685 0.8462 -8.94531e-016 5.96354e-016 -0 -0.8055 -1.585 0.7955 -3.97569e-016 3.97569e-016 -0 8.367 -8.2066 0.5982 -4.66115 -1.03232 0.120763 2.1923 -43.463 -0.4932 0.00990601 1.55097 0.177175 0.7333 -45.8593 -2.6451 4.65196 -0.54114 -0.255042 -8.367 -8.2066 0.5982 4.66115 -1.03222 -0.120763 -2.1923 -43.463 -0.4931 -0.00990459 1.5509 -0.177176 -0.7333 -45.8593 -2.6451 -4.65196 -0.541171 0.255041 
-29.248 59.4114 8.80413 -1.91294e-015 4.81516e-015 133.333 -1.77636e-015 -1.186 -1.5018 0.111332 0.431223 -0.440611 -3.55271e-015 9.964 0.2134 0.225987 0.861577 -0.882104 -5.32907e-015 13.134 -3.2573 0.225987 0.861578 -0.882083 -1.77636e-015 20.686 -1.6905 6.66989 -1.66002 0.261921 -3.55271e-015 7.238 -0.1237 -4.92482e-007 11.1942 3.33802e-006 1.7069 20.075 5.0056 -15.5326 -9.6616 -0.0283097 13.6458 -0.047 -4.849 -35.1729 2.72494 -45.0965 28.3255 -0.9759 2.2888 -34.1005 34.2548 0.708781 22.1583 -0.53 10.8316 -20.8677 11.4767 -5.47688 0.786 0.112 2.5817 7.10055e-007 -8.30823e-006 2.78056e-006 0.3601 -0.878 4.2331 7.27761e-007 6.13134e-006 2.26177e-006 1.8127 -1.216 2.2227 3.60899e-006 -5.10363e-006 -1.2145e-006 0.9571 1.114 1.7695 -1.98785e-015 6.36111e-015 1.19271e-015 4.1246 0.487 4.1451 7.10055e-007 -8.30823e-006 2.78056e-006 3.4052 -1.454 2.7682 7.27762e-007 6.13134e-006 2.26177e-006 1.4531 -1.795 1.2713 3.60899e-006 -5.10363e-006 -1.2145e-006 5.6954 0.21 2.1184 7.10055e-007 -8.30823e-006 2.78056e-006 3.9766 -1.54 2.3863 7.27762e-007 6.13134e-006 2.26177e-006 1.4042 -1.926 1.125 3.60899e-006 -5.10363e-006 -1.2145e-006 2.0956 0.66 -0.3894 -1.98785e-015 6.36111e-015 1.19271e-015 5.0395 -0.09 2.4971 7.10055e-007 -8.30823e-006 2.78056e-006 3.7921 -1.552 1.4806 7.27762e-007 6.13134e-006 2.26177e-006 1.4655 -1.808 0.9609 3.60899e-006 -5.10363e-006 -1.2145e-006 4.9141 -1.269 0.3591 7.10055e-007 -8.30823e-006 2.78056e-006 3.1477 -1.685 0.8462 7.27762e-007 6.13134e-006 2.26177e-006 0.8055 -1.585 0.7955 3.60899e-006 -5.10363e-006 -1.2145e-006 -1.7069 20.075 5.0056 -8.10662 -10.1422 -9.05818 -13.6458 -0.047 -4.849 39.971 11.0368 58.311 -28.3255 -0.9759 2.2888 43.9233 7.84582 14.6288 -22.1583 -0.53 10.8316 35.8543 4.83061 13.4919 -0.786 0.112 2.5817 -6.36111e-015 -6.36111e-015 3.18055e-015 -0.3601 -0.878 4.2331 -1.122e-006 -2.77555e-006 6.3836e-006 -1.8127 -1.216 2.2227 -2.80538e-006 5.72875e-006 -5.33816e-006 -0.9571 1.114 1.7695 -3.18055e-015 -1.59028e-015 3.18055e-015 -4.1246 0.487 4.1451 3.18055e-015 -7.95139e-015 1.27222e-014 -3.4052 -1.454 2.7682 -1.122e-006 -2.77555e-006 6.3836e-006 -1.4531 -1.795 1.2713 -2.80538e-006 5.72875e-006 -5.33816e-006 -5.6954 0.21 2.1184 3.18055e-015 -7.95139e-015 1.27222e-014 -3.9766 -1.54 2.3863 -1.122e-006 -2.77555e-006 6.3836e-006 -1.4042 -1.926 1.125 -2.80538e-006 5.72875e-006 -5.33816e-006 -2.0956 0.66 -0.3894 -3.18055e-015 -1.59028e-015 3.18055e-015 -5.0395 -0.09 2.4971 3.18055e-015 -7.95139e-015 1.27222e-014 -3.7921 -1.552 1.4806 -1.122e-006 -2.77555e-006 6.3836e-006 -1.4655 -1.808 0.9609 -2.80538e-006 5.72875e-006 -5.33816e-006 -4.9141 -1.269 0.3592 3.18055e-015 -7.95139e-015 1.27222e-014 -3.1477 -1.685 0.8462 -1.122e-006 -2.77555e-006 6.3836e-006 -0.8055 -1.585 0.7955 -2.80538e-006 5.72875e-006 -5.33816e-006 8.367 -8.2066 0.5982 25.0273 -62.594 37.0962 2.1923 -43.463 -0.4932 -1.33104 33.454 0.00387796 0.7333 -45.8593 -2.6451 6.96148 33.4637 0.614498 -8.367 -8.2066 0.5982 -25.0353 -62.5931 -37.1084 -2.1923 -43.463 -0.4931 1.32855 33.4525 -0.00544181 -0.7333 -45.8593 -2.6451 -6.96774 33.4637 -0.612064 
-40.3234 45.014 13.8328 -8.63487e-015 6.82757e-015 -166.667 7.10543e-015 -1.186 -1.5018 0.169675 0.61678 -0.60682 0 9.964 0.2134 0.345905 1.23173 -1.21557 0 13.134 -3.2573 0.345905 1.23173 -1.21557 -7.10543e-015 20.686 -1.6905 9.66845 -1.439 0.226429 0 7.238 -0.1237 -2.37444e-006 15.8137 -6.00474e-007 1.7069 20.075 5.0056 -22.5254 -14.0093 -0.04168 13.6458 -0.047 -4.849 -50.3954 1.00854 -67.8576 28.3255 -0.9759 2.2888 -43.1122 46.8609 -10.1315 22.1583 -0.53 10.8316 -30.3627 16.2813 -7.02726 0.786 0.112 2.5817 6.36111e-015 -6.36111e-015 3.18055e-015 0.3601 -0.878 4.2331 -3.18055e-015 0 -3.18055e-015 1.8127 -1.216 2.2227 8.82781e-032 3.18055e-015 -1.59028e-015 0.9571 1.114 1.7695 6.36111e-015 -6.36111e-015 3.18055e-015 4.1246 0.487 4.1451 -6.36111e-015 -6.36111e-015 3.18055e-015 3.4052 -1.454 2.7682 3.18055e-015 -6.36111e-015 -3.18055e-015 1.4531 -1.795 1.2713 3.18055e-015 3.18055e-015 4.77083e-015 5.6954 0.21 2.1184 -6.36111e-015 -6.36111e-015 3.18055e-015 3.9766 -1.54 2.3863 3.18055e-015 -6.36111e-015 -3.18055e-015 1.4042 -1.926 1.125 3.18055e-015 3.18055e-015 4.77083e-015 2.0956 0.66 -0.3894 6.36111e-015 -6.36111e-015 3.18055e-015 5.0395 -0.09 2.4971 -6.36111e-015 -6.36111e-015 3.18055e-015 3.7921 -1.552 1.4806 3.18055e-015 -6.36111e-015 -3.18055e-015 1.4655 -1.808 0.9609 3.18055e-015 3.18055e-015 4.77083e-015 4.9141 -1.269 0.3591 -6.36111e-015 -6.36111e-015 3.18055e-015 3.1477 -1.685 0.8462 3.18055e-015 -6.36111e-015 -3.18055e-015 0.8055 -1.585 0.7955 3.18055e-015 3.18055e-015 4.77083e-015 -1.7069 20.075 5.0056 -12.8266 -14.5023 -13.3606 -13.6458 -0.047 -4.849 54.6537 -0.235186 83.3908 -28.3255 -0.9759 2.2888 63.4231 8.81508 28.1405 -22.1583 -0.53 10.8316 53.3143 6.64047 16.9394 -0.786 0.112 2.5817 -2.69337e-006 4.57221e-007 1.81916e-006 -0.3601 -0.878 4.2331 -5.29669e-031 -6.36111e-015 -4.77083e-015 -1.8127 -1.216 2.2227 -3.60781e-006 -4.92952e-006 3.7062e-006 -0.9571 1.114 1.7695 -3.18055e-015 -6.36111e-015 6.36111e-015 -4.1246 0.487 4.1451 -2.69337e-006 4.57221e-007 1.81916e-006 -3.4052 -1.454 2.7682 0 0 -6.36111e-015 -1.4531 -1.795 1.2713 -3.60781e-006 -4.92952e-006 3.7062e-006 -5.6954 0.21 2.1184 -2.69337e-006 4.57221e-007 1.81916e-006 -3.9766 -1.54 2.3863 0 0 -6.36111e-015 -1.4042 -1.926 1.125 -3.60781e-006 -4.92952e-006 3.7062e-006 -2.0956 0.66 -0.3894 -3.18055e-015 -6.36111e-015 6.36111e-015 -5.0395 -0.09 2.4971 -2.69337e-006 4.57221e-007 1.81916e-006 -3.7921 -1.552 1.4806 0 0 -6.36111e-015 -1.4655 -1.808 0.9609 -3.60781e-006 -4.92952e-006 3.7062e-006 -4.9141 -1.269 0.3592 -2.69337e-006 4.57221e-007 1.81916e-006 -3.1477 -1.685 0.8462 0 0 -6.36111e-015 -0.8055 -1.585 0.7955 -3.60781e-006 -4.92952e-006 3.7062e-006 8.367 -8.2066 0.5982 96.6167 -66.2899 104.889 2.1923 -43.463 -0.4932 -0.795122 47.8974 -0.359836 0.7333 -45.8593 -2.6451 8.02843 48.3594 1.29197 -8.367 -8.2066 0.5982 -96.6174 -66.2917 -104.88 -2.1923 -43.463 -0.4931 0.792604 47.8954 0.356353 -0.7333 -45.8593 -2.6451 -8.01425 48.3617 -1.31188 
-38.0896 48.2383 12.8865 -7.01671e-015 7.01671e-015 180 0 -1.186 -1.5018 0.156432 0.575969 -0.571632 -7.10543e-015 9.964 0.2134 0.318627 1.15035 -1.14492 -7.10543e-015 13.134 -3.2573 0.318628 1.15035 -1.14492 7.10543e-015 20.686 -1.6905 9.00069 0.665122 -0.106638 0 7.238 -0.1237 1.67892e-006 13.8583 -5.49343e-008 1.7069 20.075 5.0056 -20.9713 -13.0432 -0.0386406 13.6458 -0.047 -4.849 -46.9878 1.58845 -62.8232 28.3255 -0.9759 2.2888 -41.8533 44.3743 -6.88733 22.1583 -0.53 10.8316 -28.2376 15.2417 -6.73093 0.786 0.112 2.5817 -3.18055e-015 -6.36111e-015 4.77083e-015 0.3601 -0.878 4.2331 4.77083e-015 -1.27222e-014 -1.59028e-015 1.8127 -1.216 2.2227 1.05934e-030 -9.54166e-015 6.36111e-015 0.9571 1.114 1.7695 -3.18055e-015 -3.18055e-015 4.77083e-015 4.1246 0.487 4.1451 4.77083e-015 -1.27222e-014 -0 3.4052 -1.454 2.7682 3.18055e-015 -1.27222e-014 -1.11319e-014 1.4531 -1.795 1.2713 1.59028e-015 -6.36111e-015 4.77083e-015 5.6954 0.21 2.1184 4.77083e-015 -1.27222e-014 -0 3.9766 -1.54 2.3863 3.18055e-015 -1.27222e-014 -1.11319e-014 1.4042 -1.926 1.125 1.59028e-015 -6.36111e-015 4.77083e-015 2.0956 0.66 -0.3894 -3.18055e-015 -3.18055e-015 4.77083e-015 5.0395 -0.09 2.4971 4.77083e-015 -1.27222e-014 -0 3.7921 -1.552 1.4806 3.18055e-015 -1.27222e-014 -1.11319e-014 1.4655 -1.808 0.9609 1.59028e-015 -6.36111e-015 4.77083e-015 4.9141 -1.269 0.3591 4.77083e-015 -1.27222e-014 -0 3.1477 -1.685 0.8462 3.18055e-015 -1.27222e-014 -1.11319e-014 0.8055 -1.585 0.7955 1.59028e-015 -6.36111e-015 4.77083e-015 -1.7069 20.075 5.0056 -11.7186 -13.5507 -12.3859 -13.6458 -0.047 -4.849 51.0009 3.16385 78.3569 -28.3255 -0.9759 2.2888 59.0747 8.67778 25.3834 -22.1583 -0.53 10.8316 49.3689 6.29737 16.3027 -0.786 0.112 2.5817 -2.35315e-006 -3.74211e-007 -2.91465e-007 -0.3601 -0.878 4.2331 -2.35315e-006 -3.74211e-007 -2.91465e-007 -1.8127 -1.216 2.2227 -2.35315e-006 -3.74211e-007 -2.91465e-007 -0.9571 1.114 1.7695 -0 0 7.95139e-016 -4.1246 0.487 4.1451 -2.35315e-006 -3.74211e-007 -2.91465e-007 -3.4052 -1.454 2.7682 -2.35315e-006 -3.74211e-007 -2.91465e-007 -1.4531 -1.795 1.2713 -2.35315e-006 -3.74211e-007 -2.91465e-007 -5.6954 0.21 2.1184 -2.35315e-006 -3.74211e-007 -2.91465e-007 -3.9766 -1.54 2.3863 -2.35315e-006 -3.74211e-007 -2.91465e-007 -1.4042 -1.926 1.125 -2.35315e-006 -3.74211e-007 -2.91465e-007 -2.0956 0.66 -0.3894 -0 0 7.95139e-016 -5.0395 -0.09 2.4971 -2.35315e-006 -3.74211e-007 -2.91465e-007 -3.7921 -1.552 1.4806 -2.35315e-006 -3.74211e-007 -2.91465e-007 -1.4655 -1.808 0.9609 -2.35315e-006 -3.74211e-007 -2.91465e-007 -4.9141 -1.269 0.3592 -2.35315e-006 -3.74211e-007 -2.91465e-007 -3.1477 -1.685 0.8462 -2.35315e-006 -3.74211e-007 -2.91465e-007 -0.8055 -1.585 0.7955 -2.35315e-006 -3.74211e-007 -2.91465e-007 8.367 -8.2066 0.5982 80.6041 -68.832 89.716 2.1923 -43.463 -0.4932 -1.01719 44.6306 -0.229224 0.7333 -45.8593 -2.6451 7.19864 45.1489 1.72598 -8.367 -8.2066 0.5982 -80.592 -68.8496 -89.6653 -2.1923 -43.463 -0.4931 1.01456 44.6292 0.225453 -0.7333 -45.8593 -2.6451 -7.1392 45.1561 -1.79144 
